<?xml version="1.0" encoding="UTF-8" standalone="no"?>
<!-- Created with Inkscape (http://www.inkscape.org/) -->

<svg
   version="1.1"
   id="svg1"
   width="800"
   height="800"
   viewBox="0 0 800 800"
   sodipodi:docname="arrow.svg"
   inkscape:export-filename="..\..\1\Projects\ManagementDashboard\Management-dashboard\src\assets\img\arrow.svg"
   inkscape:export-xdpi="96"
   inkscape:export-ydpi="96"
   xml:space="preserve"
   inkscape:version="1.3.2 (091e20e, 2023-11-25, custom)"
   xmlns:inkscape="http://www.inkscape.org/namespaces/inkscape"
   xmlns:sodipodi="http://sodipodi.sourceforge.net/DTD/sodipodi-0.dtd"
   xmlns="http://www.w3.org/2000/svg"
   xmlns:svg="http://www.w3.org/2000/svg"><defs
     id="defs1" /><sodipodi:namedview
     id="namedview1"
     pagecolor="#ffffff"
     bordercolor="#000000"
     borderopacity="0.25"
     inkscape:showpageshadow="2"
     inkscape:pageopacity="0.0"
     inkscape:pagecheckerboard="0"
     inkscape:deskcolor="#d1d1d1"
     inkscape:zoom="0.077047414"
     inkscape:cx="-1226.5175"
     inkscape:cy="681.3986"
     inkscape:window-width="1920"
     inkscape:window-height="1017"
     inkscape:window-x="1272"
     inkscape:window-y="-8"
     inkscape:window-maximized="1"
     inkscape:current-layer="g1" /><g
     inkscape:groupmode="layer"
     inkscape:label="Image"
     id="g1"><path
       style="fill:#000000;stroke-width:1.22515"
       d="m 153.58498,721.14244 c -26.67075,-6.52183 -49.18041,-25.15022 -64.07724,-53.0286 L 82.185516,654.41092 V 443.45818 232.50545 l 7.442778,-13.93937 c 27.344836,-51.21294 36.486526,-53.98251 182.254726,-55.21427 142.3101,-1.20273 152.29996,0.77931 135.23082,26.83014 l -5.4034,8.24648 -117.57189,0.24686 c -183.02265,0.38446 -167.83987,-21.75864 -167.83987,244.78289 0,204.82932 0.20717,207.62364 16.68518,225.13028 19.29928,20.50409 12.31201,19.89948 229.95614,19.89948 223.06921,0 212.83848,1.09345 232.64644,-24.86378 l 9.1129,-11.94189 1.62271,-132.77465 c 1.76348,-144.29496 1.4398,-141.98065 19.86101,-141.98065 16.10397,0 16.17307,0.66317 15.16024,145.59754 l -0.94423,135.13183 -9.66911,17.458 c -11.51359,20.78857 -32.25964,37.56208 -54.70008,44.22615 -17.64533,5.24009 -401.68561,6.87823 -422.4449,1.80195 z M 301.68538,606.8047 c -1.56856,-4.16134 -3.94645,-12.6776 -5.28419,-18.925 -8.17187,-38.1635 -26.33715,-55.91567 -71.41687,-69.79231 -28.85972,-8.8838 -29.2628,-14.13773 -1.62271,-21.14889 41.93207,-10.6365 60.49785,-27.6385 71.53362,-65.50895 3.79392,-13.01904 7.50723,-25.61811 8.25175,-27.99771 2.68589,-8.58425 9.14292,-1.42889 12.87448,14.26698 11.53379,48.51295 32.4004,69.97413 78.13508,80.36094 25.39489,5.76751 25.01497,11.84829 -1.18214,18.91825 -43.46657,11.73056 -62.30641,29.52339 -73.9294,69.82074 -7.68107,26.63082 -12.68764,32.40053 -17.35962,20.00595 z M 503.37831,494.39338 c -2.17709,-1.38332 -6.22363,-13.4095 -8.99247,-26.72515 C 471.02691,355.3347 438.46613,325.23108 310.53475,297.69145 c -27.12112,-5.83832 -12.97898,-18.42575 32.62142,-29.03517 88.84865,-20.67169 126.94441,-58.16357 146.40761,-144.08693 14.61443,-64.517925 22.11455,-64.910952 37.44802,-1.96281 23.35783,95.8897 62.34329,131.48652 164.7645,150.44288 37.13843,6.8737 34.10104,21.20194 -6.24666,29.46753 -99.54236,20.39211 -134.33867,52.63582 -157.59788,146.03712 -11.72173,47.07046 -14.48787,52.23483 -24.55345,45.83931 z M 649.84289,196.79616 c -2.21703,-8.83344 -18.60474,-24.33109 -25.72849,-24.33109 -9.28345,0 -7.86754,-6.48495 2.36074,-10.81291 12.23213,-5.17577 20.85289,-13.98091 22.51382,-22.99519 1.87448,-10.17376 8.50425,-9.47481 10.8362,1.14233 2.37446,10.81108 15.39338,22.92939 24.63333,22.92939 10.7742,0 9.68321,5.92384 -1.78823,9.70968 -12.50375,4.12666 -24.42138,17.02332 -24.42138,26.4278 0,8.87057 -6.03288,7.38495 -8.40599,-2.07001 z"
       id="path4" /></g></svg>
