<?xml version="1.0" encoding="UTF-8" standalone="no"?>
<!-- Created with Inkscape (http://www.inkscape.org/) -->

<svg
   width="200mm"
   height="200mm"
   viewBox="0 0 200 200"
   version="1.1"
   id="svg1"
   xml:space="preserve"
   xmlns:inkscape="http://www.inkscape.org/namespaces/inkscape"
   xmlns:sodipodi="http://sodipodi.sourceforge.net/DTD/sodipodi-0.dtd"
   xmlns="http://www.w3.org/2000/svg"
   xmlns:svg="http://www.w3.org/2000/svg"><sodipodi:namedview
     id="namedview1"
     pagecolor="#ffffff"
     bordercolor="#000000"
     borderopacity="0.25"
     inkscape:showpageshadow="2"
     inkscape:pageopacity="0.0"
     inkscape:pagecheckerboard="0"
     inkscape:deskcolor="#d1d1d1"
     inkscape:document-units="mm" /><defs
     id="defs1" /><g
     inkscape:label="Capa 1"
     inkscape:groupmode="layer"
     id="layer1"><path
       style="fill:#000000"
       d="m 106.74952,94.721848 c -3.18218,-2.842137 -3.18218,-2.842137 -3.46502,-33.589475 -0.39836,-43.304993 -3.937396,-39.765951 39.36759,-39.367596 40.25503,0.370299 36.43161,-3.542121 36.43161,37.279744 0,32.985828 -0.22536,34.654975 -5.01333,37.130932 -6.04484,3.125905 -63.58447,1.883497 -67.32085,-1.453605 z m 65.28423,-34.067961 c -0.48588,-37.784203 5.4825,-31.522639 -29.87626,-31.522639 -35.43594,0 -31.00652,-5.169311 -31.00652,30.180951 0,35.439855 -7.19418,29.332642 32.12041,29.951131 29.75172,0.468048 29.14302,0.991297 28.76237,-28.609443 z"
       id="path1"
       sodipodi:nodetypes="sssssssssss" /><path
       style="fill:#000000"
       d="m 175.92772,182.83082 c -2.84214,3.18218 -2.84214,3.18218 -33.58947,3.46502 -43.304998,0.39836 -39.76595,3.9374 -39.3676,-39.36759 0.3703,-40.25503 -3.542118,-36.43161 37.27974,-36.43161 32.98583,0 34.65498,0.22536 37.13094,5.01333 3.1259,6.04484 1.88349,63.58447 -1.45361,67.32085 z m -34.06796,-65.28423 c -37.7842,0.48588 -31.52264,-5.4825 -31.52264,29.87626 0,35.43594 -5.16931,31.00652 30.18095,31.00652 35.43986,0 29.33264,7.19418 29.95113,-32.12041 0.46805,-29.75172 0.9913,-29.14302 -28.60944,-28.76237 z"
       id="path1-3"
       sodipodi:nodetypes="sssssssssss" /><path
       style="fill:#000000"
       d="m 87.765188,94.72185 c 3.18218,-2.84214 3.18218,-2.84214 3.46502,-33.58948 0.39836,-43.30499 3.9374,-39.76595 -39.36759,-39.36759 -40.25503,0.3703 -36.43161,-3.54212 -36.43161,37.27974 0,32.98583 0.22536,34.65498 5.01333,37.13093 6.04484,3.12591 63.58447,1.8835 67.32085,-1.4536 z M 22.480958,60.65389 c 0.48588,-37.78421 -5.4825,-31.52264 29.87626,-31.52264 35.43594,0 31.00652,-5.16931 31.00652,30.18095 0,35.43985 7.19418,29.33264 -32.12041,29.95113 -29.75172,0.46805 -29.14302,0.9913 -28.76237,-28.60944 z"
       id="path1-7"
       sodipodi:nodetypes="sssssssssss" /><path
       style="fill:#000000"
       d="m 18.430068,182.83082 c 2.84214,3.18218 2.84214,3.18218 33.58947,3.46502 43.304998,0.39836 39.76595,3.9374 39.3676,-39.36759 -0.3703,-40.25503 3.542118,-36.43161 -37.27974,-36.43161 -32.98583,0 -34.65498,0.22536 -37.13094,5.01333 -3.1259,6.04484 -1.88349,63.58447 1.45361,67.32085 z m 34.06796,-65.28423 c 37.7842,0.48588 31.52264,-5.4825 31.52264,29.87626 0,35.43594 5.16931,31.00652 -30.18095,31.00652 -35.43986,0 -29.33264,7.19418 -29.95113,-32.12041 -0.46805,-29.75172 -0.9913,-29.14302 28.60944,-28.76237 z"
       id="path1-3-0"
       sodipodi:nodetypes="sssssssssss" /></g></svg>
