<?xml version="1.0" encoding="UTF-8" standalone="no"?>
<!-- Created with Inkscape (http://www.inkscape.org/) -->

<svg
   version="1.1"
   id="svg1"
   width="800"
   height="800"
   viewBox="0 0 800 800"
   sodipodi:docname="arrow.svg"
   inkscape:export-filename="text-field.svg"
   inkscape:export-xdpi="96"
   inkscape:export-ydpi="96"
   xml:space="preserve"
   inkscape:version="1.3.2 (091e20e, 2023-11-25, custom)"
   xmlns:inkscape="http://www.inkscape.org/namespaces/inkscape"
   xmlns:sodipodi="http://sodipodi.sourceforge.net/DTD/sodipodi-0.dtd"
   xmlns="http://www.w3.org/2000/svg"
   xmlns:svg="http://www.w3.org/2000/svg"><defs
     id="defs1" /><sodipodi:namedview
     id="namedview1"
     pagecolor="#ffffff"
     bordercolor="#000000"
     borderopacity="0.25"
     inkscape:showpageshadow="2"
     inkscape:pageopacity="0.0"
     inkscape:pagecheckerboard="0"
     inkscape:deskcolor="#d1d1d1"
     inkscape:zoom="0.077047414"
     inkscape:cx="-1226.5175"
     inkscape:cy="681.3986"
     inkscape:window-width="1920"
     inkscape:window-height="1017"
     inkscape:window-x="1272"
     inkscape:window-y="-8"
     inkscape:window-maximized="1"
     inkscape:current-layer="g1" /><g
     inkscape:groupmode="layer"
     inkscape:label="Image"
     id="g1"><path
       style="fill:#000000"
       d="m 175.79992,669.86507 c -12.2338,-1.66196 -14.8726,-2.35131 -25.4,-6.63555 -5.1921,-2.11294 -10.6376,-4.79639 -11.8315,-5.83032 -0.3474,-0.30078 -0.7461,-0.54688 -0.8861,-0.54688 -0.2604,0 -6.8547,-4.18747 -7.6452,-4.8548 -0.2405,-0.20303 -1.4143,-1.08343 -2.6085,-1.95643 -6.3547,-4.6456 -16.9799,-15.30379 -20.7243,-20.78877 -0.6758,-0.99 -1.5654,-2.16 -1.9768,-2.6 -0.7328,-0.78382 -4.1276,-6.01074 -4.1276,-6.35528 0,-0.0962 -0.630003,-1.1315 -1.400003,-2.30068 -0.77,-1.16919 -1.4,-2.27355 -1.4,-2.45413 0,-1.48282 -2.8995,-4.64645 -5.3965,-5.88813 -1.4839,-0.73794 -3.2618,-1.72199 -3.9508,-2.18677 -0.689,-0.46479 -2.3843,-1.53032 -3.7673,-2.36784 -11.7835,-7.13589 -27.2174,-22.67211 -33.5525,-33.77485 -0.5876,-1.02978 -1.2953,-2.14259 -1.5727,-2.47291 -0.7646,-0.91057 -5.1497,-9.85072 -6.278,-12.79941 -2.0878,-5.45616 -3.5911,-9.88761 -4.1386,-12.2 -3.8543,-16.27731 -3.5449,-1.53844 -3.5348,-168.4 0.01,-158.19147 -0.049,-153.71279 2.156,-163.6 0.4416,-1.98 1.0161,-4.59 1.2766,-5.8 1.2648,-5.87533 7.3371,-20.87546 9.4044,-23.2315 0.3048,-0.34732 0.5542,-0.7649 0.5542,-0.92795 0,-0.35438 7.1724,-11.15281 7.5989,-11.44055 0.1631,-0.11 1.408,-1.6023 2.7665,-3.31622 4.0066,-5.05492 11.8508,-12.60487 17.4346,-16.78059 2.86,-2.13881 5.38,-4.02747 5.6,-4.19701 1.7002,-1.31037 6.3289,-4.21664 7.8,-4.89754 0.99,-0.45823 2.07,-0.98127 2.4,-1.16232 0.33,-0.18104 1.23,-0.60367 2,-0.93918 0.77,-0.3355 2.57,-1.15756 4,-1.82679 9.305303,-4.35486 20.205903,-6.93817 32.400003,-7.67838 9.2589,-0.56205 477.60672,-0.55101 486.93981,0.0115 9.19142,0.55395 17.55935,2.07887 24.06015,4.38458 1.32,0.46817 3.14562,1.0957 4.05692,1.39451 5.08895,1.66858 15.90789,7.27284 21.53673,11.15612 8.8501,6.10559 18.9794,15.4986 23.88772,22.15135 0.68984,0.935 1.40373,1.7 1.58644,1.7 0.1827,0 0.33219,0.19923 0.33219,0.44274 0,0.36522 1.81039,2.90249 3.5964,5.04038 0.22198,0.26571 0.4036,0.57169 0.4036,0.67994 0,0.10826 0.58408,1.06086 1.29796,2.11689 1.49776,2.21561 2.07499,3.24417 4.02914,7.17948 1.6003,3.22273 2.40968,3.93226 7.6729,6.72634 4.03437,2.14171 9.68116,5.72119 11.8,7.47996 0.77,0.63915 1.58611,1.29083 1.81359,1.44818 7.18244,4.96826 18.60457,17.16318 24.2457,25.88609 3.36292,5.2001 9.14071,16.24348 9.14071,17.47109 0,0.2244 0.26196,0.97521 0.58212,1.66846 1.52534,3.30275 2.80602,7.74326 4.57428,15.86045 1.95229,8.96195 1.8436,-0.67094 1.8436,163.4 0,141.3619 -0.0477,152.27995 -0.68154,156 -0.37485,2.2 -0.75676,4.63 -0.84868,5.4 -0.28804,2.41267 -2.70997,11.62391 -4.15434,15.8 -1.29261,3.73734 -2.0199,5.43723 -4.70627,11 -3.02994,6.27424 -9.88002,16.22199 -14.47466,21.02024 -1.06398,1.11113 -2.66349,2.82113 -3.55447,3.8 -1.7528,1.92571 -8.88195,8.58877 -10.69636,9.99705 -1.96049,1.52167 -7.12572,5.18271 -7.31209,5.18271 -0.0989,0 -1.04106,0.585 -2.09373,1.3 -9.69587,6.58572 -25.37153,12.62389 -36.0923,13.90254 -1.65795,0.19774 -4.08795,0.58217 -5.4,0.85428 -1.87737,0.38935 -54.53432,0.51155 -247.18552,0.57365 l -244.8,0.0789 z m 486.73919,-40.59532 c 0.73366,-0.21041 3.52248,-0.57874 6.19735,-0.81851 6.60193,-0.59178 17.2165,-3.39603 19.09492,-5.04467 0.34732,-0.30484 0.73812,-0.55425 0.86845,-0.55425 0.53484,0 7.37427,-4.14507 8.30005,-5.03029 0.55,-0.5259 2.22525,-1.94542 3.72278,-3.15449 3.23744,-2.61382 5.08776,-4.44561 7.49023,-7.41522 0.97891,-1.21 2.36813,-2.83 3.08715,-3.6 0.71903,-0.77 1.6758,-2.12 2.12616,-3 0.45037,-0.88 1.43891,-2.68 2.19674,-4 2.07846,-3.62023 3.77694,-7.40202 3.77694,-8.4096 0,-0.49443 0.26889,-1.41453 0.59754,-2.04468 0.32864,-0.63014 0.59864,-1.43809 0.6,-1.79543 10e-4,-0.35734 0.28867,-1.43734 0.63847,-2.4 1.48008,-4.07312 1.53504,-9.68813 1.53044,-156.35029 -0.005,-160.11826 0.16086,-150.62207 -2.82282,-161.6 -1.2316,-4.53146 -3.42857,-8.8 -4.52926,-8.8 -1.44575,0 -1.40657,-3.24812 -1.64468,136.36144 -0.16551,97.04808 -0.35573,135.60122 -0.67615,137.03856 -0.24522,1.1 -0.45658,2.97418 -0.4697,4.16484 -0.0131,1.19067 -0.28222,3.08067 -0.59803,4.2 -0.3158,1.11934 -0.77441,2.93516 -1.01913,4.03516 -0.8139,3.65838 -1.52468,6.38472 -2.03352,7.8 -0.27685,0.77 -0.85681,2.39 -1.28882,3.6 -1.48389,4.15618 -1.96655,5.4012 -2.32604,6 -0.19812,0.33 -0.55111,1.05 -0.78443,1.6 -0.79525,1.8746 -3.61468,7.39667 -4.39095,8.6 -0.42576,0.66 -0.89993,1.47 -1.05371,1.8 -1.38325,2.9684 -12.33115,16.69859 -16.7469,21.00294 -18.6277,18.15778 -40.72127,27.23911 -68.58231,28.19004 -5.61,0.19148 -109.14456,0.36187 -230.07676,0.37865 -135.4531,0.0188 -220.2548,0.17421 -220.8612,0.40477 -2.5248,0.95992 -0.7362,2.97862 3.938,4.44474 1.54,0.48304 3.34,1.10955 4,1.39225 2.0954,0.89755 6.3083,1.74403 10.8239,2.17476 2.4068,0.22959 4.9161,0.58071 5.5761,0.78026 1.667,0.50403 473.58298,0.55269 475.33919,0.049 z m -42.53923,-51.52954 c 6.30255,-1.04231 8.95834,-1.6996 12.4,-3.06892 1.59031,-0.63273 11.03219,-5.42963 11.57487,-5.88055 1.5227,-1.26524 2.30128,-1.88001 3.24638,-2.56336 4.39713,-3.17935 13.37875,-12.70297 13.37875,-14.1861 0,-0.21393 0.16222,-0.38896 0.36049,-0.38896 0.51375,0 3.44976,-4.90553 5.3866,-9 1.81254,-3.8317 3.73284,-10.01021 4.2624,-13.71411 0.2112,-1.47724 0.60379,-3.67589 0.87242,-4.88589 0.68986,-3.10735 0.62462,-294.53195 -0.0668,-298.4 -0.25562,-1.43 -0.62323,-3.86 -0.81692,-5.4 -0.91476,-7.27314 -6.42333,-19.34915 -11.43742,-25.07337 -5.6156,-6.41092 -6.83981,-7.6745 -10.05117,-10.37436 -1.93028,-1.62284 -3.59961,-3.06087 -3.70961,-3.19563 -0.11,-0.13476 -0.81315,-0.58513 -1.56257,-1.00083 -0.74941,-0.41569 -2.36941,-1.33458 -3.6,-2.04196 -4.86794,-2.79824 -11.91151,-5.28753 -17.43743,-6.1626 -1.32,-0.20903 -3.57,-0.59491 -5,-0.85752 -3.43071,-0.63001 -476.03445,-0.9291 -482.20005,-0.30516 -7.6565,0.77482 -11.1656,1.27194 -11.953,1.69334 -0.4358,0.23322 -1.7046,0.66036 -2.8196,0.94918 -5.5682,1.44231 -8.2934,2.49103 -10.8274,4.1666 -0.66,0.43643 -1.47,0.91788 -1.8,1.0699 -0.5683,0.2618 -3.339,1.99415 -4.2,2.62595 -2.3349,1.71346 -9.817703,8.89961 -12.400003,11.90828 -1.8852,2.19665 -4.2,5.15543 -4.2,5.36865 0,0.1067 -0.405,0.79664 -0.9,1.5332 -3.455,5.14108 -7.2154,15.47495 -7.91,21.73736 -0.2171,1.95743 -0.5644,4.81897 -0.7718,6.35897 -0.5023,3.72967 -0.5008,288.9289 0,293 0.2036,1.65 0.536,4.44 0.7387,6.2 0.2027,1.76 0.6346,4.01 0.9597,5 0.3252,0.99 1.0445,3.24 1.5984,5 1.0029,3.18637 4.0836,9.511 5.5259,11.34469 0.4167,0.52976 0.7577,1.20892 0.7577,1.50925 0,0.30033 0.135,0.5472 0.3,0.54859 0.165,10e-4 1.65,1.74664 3.3,3.87834 3.891,5.02698 5.7752,6.9325 10.400003,10.51808 2.09,1.62036 3.89,3.07045 4,3.22244 0.1605,0.22175 5.8648,3.32557 8.7653,4.76936 5.291,2.6337 12.1056,3.98618 22.0347,4.37321 12.2449,0.47729 480.86153,0.20989 483.79999,-0.27607 z M 181.19992,484.0304 c -0.88,-0.18259 -2.2775,-0.34235 -3.1055,-0.35503 -0.828,-0.0127 -1.818,-0.19015 -2.2,-0.39439 -0.382,-0.20424 -1.5291,-0.75041 -2.5491,-1.2137 -1.0201,-0.4633 -2.2517,-1.18675 -2.737,-1.60766 -0.4853,-0.42091 -1.0039,-0.81974 -1.1523,-0.88629 -0.1484,-0.0666 -0.9041,-0.93101 -1.6794,-1.92101 -8.6633,-11.06302 -2.0688,-26.54507 11.9344,-28.01865 4.3055,-0.45307 386.60913,-0.47356 390.88886,-0.0209 19.90065,2.10463 20.60686,31.11554 0.83162,34.16253 -3.24215,0.49956 -387.84178,0.75102 -390.23158,0.25514 z m 80.2,-98.76983 c -59.1977,-0.16531 -83.832,-0.36144 -84.8884,-0.67583 -9.9217,-2.95263 -15.94,-16.07005 -11.072,-24.13242 0.1992,-0.33 0.527,-0.97782 0.7284,-1.4396 0.9916,-2.27348 5.4617,-5.94342 9.232,-7.57937 2.0501,-0.88956 390.23896,-1.48542 395.96123,-0.60778 19.36548,2.97012 19.39713,30.73083 0.0387,33.95807 -3.20899,0.53496 -187.61983,0.81868 -310.00003,0.47693 z m -83.2,-99.43511 c -10.4534,-2.26282 -17.069,-13.06735 -13.5357,-22.1061 2.4547,-6.27968 5.0077,-8.85805 11.3357,-11.44835 l 2,-0.81869 h 196.2 c 220.26419,0 199.07073,-0.29563 203.82704,2.84324 12.58281,8.30388 9.97033,25.97399 -4.62708,31.29625 -2.55234,0.93059 -390.91966,1.1602 -395.19996,0.23365 z"
       id="path6" /></g></svg>
