<?xml version="1.0" encoding="UTF-8" standalone="no"?>
<!-- Created with Inkscape (http://www.inkscape.org/) -->

<svg
   version="1.1"
   id="svg1"
   width="800"
   height="800"
   viewBox="0 0 800 800"
   sodipodi:docname="arrow.svg"
   inkscape:export-filename="ai.svg"
   inkscape:export-xdpi="96"
   inkscape:export-ydpi="96"
   xml:space="preserve"
   inkscape:version="1.3.2 (091e20e, 2023-11-25, custom)"
   xmlns:inkscape="http://www.inkscape.org/namespaces/inkscape"
   xmlns:sodipodi="http://sodipodi.sourceforge.net/DTD/sodipodi-0.dtd"
   xmlns="http://www.w3.org/2000/svg"
   xmlns:svg="http://www.w3.org/2000/svg"><defs
     id="defs1" /><sodipodi:namedview
     id="namedview1"
     pagecolor="#ffffff"
     bordercolor="#000000"
     borderopacity="0.25"
     inkscape:showpageshadow="2"
     inkscape:pageopacity="0.0"
     inkscape:pagecheckerboard="0"
     inkscape:deskcolor="#d1d1d1"
     inkscape:zoom="0.077047414"
     inkscape:cx="-1226.5175"
     inkscape:cy="681.3986"
     inkscape:window-width="1920"
     inkscape:window-height="1017"
     inkscape:window-x="1272"
     inkscape:window-y="-8"
     inkscape:window-maximized="1"
     inkscape:current-layer="g1" /><g
     inkscape:groupmode="layer"
     inkscape:label="Image"
     id="g1"><path
       style="fill:#000000"
       d="m 105.62528,714.27596 c -44.071601,-8.5435 -69.267001,-58.819 -49.510301,-98.7939 33.8678,-68.527 134.906801,-43.03 132.007301,33.3118 -1.6205,42.665 -40.5989,73.6042 -82.497,65.4821 z m 174.2187,-37.1944 c -12.5602,-5.8152 -19.5312,-17.3155 -19.5312,-32.2214 0,-13.3581 6.7645,-24.086 19.5312,-30.975 l 6.25,-3.3725 h 218.7918 218.7917 l 7.7708,3.9717 c 25.2783,12.9199 25.4843,49.0298 0.3511,61.5542 l -8.0377,4.0053 -218.8338,-0.034 c -209.6703,-0.033 -219.0956,-0.1555 -225.0839,-2.928 z M 96.480479,466.06926 c -71.6653,-26.5032 -57.5754,-131.7672 18.169501,-135.7428 75.9725,-3.9876 103.1782,98.4557 35.0842,132.1097 -15.0906,7.4581 -38.5778,9.0605 -53.253701,3.6331 z m 182.481501,-35.6348 c -24.2097,-12.2764 -25.2896,-47.0949 -1.8873,-60.8511 l 7.4568,-4.3832 h 220.3125 220.3125 l 6.4895,3.4702 c 21.5404,11.5188 25.5064,37.7012 8.3838,55.3473 -11.006,11.3425 3.2662,10.6954 -236.0774,10.705 l -216.5167,0.01 z m -176.8458,-208.3343 c -36.863301,-8.6903 -60.522001,-49.3989 -50.413201,-86.7439 13.9763,-51.632601 81.014001,-68.476201 117.786701,-29.5945 47.5617,50.2895 0.1,132.2449 -67.3735,116.3384 z m 181.5164,-35.0905 c -31.0421,-9.6123 -31.0448,-56.8197 0,-66.1198 11.5423,-3.4582 438.5149,-2.3754 446.2151,1.1316 26.855,12.2307 27.767,49.1501 1.5625,63.2526 l -6.25,3.3636 -217.1875,0.2928 c -183.5787,0.2476 -218.2937,-0.05 -224.3364,-1.9208 z"
       id="path4" /></g></svg>
