<?xml version="1.0" encoding="UTF-8" standalone="no"?>
<!-- Created with Inkscape (http://www.inkscape.org/) -->

<svg
   version="1.1"
   id="svg1"
   width="800"
   height="800"
   viewBox="0 0 800 800"
   sodipodi:docname="arrow.svg"
   inkscape:export-filename="list-item.svg"
   inkscape:export-xdpi="96"
   inkscape:export-ydpi="96"
   xml:space="preserve"
   inkscape:version="1.3.2 (091e20e, 2023-11-25, custom)"
   xmlns:inkscape="http://www.inkscape.org/namespaces/inkscape"
   xmlns:sodipodi="http://sodipodi.sourceforge.net/DTD/sodipodi-0.dtd"
   xmlns="http://www.w3.org/2000/svg"
   xmlns:svg="http://www.w3.org/2000/svg"><defs
     id="defs1" /><sodipodi:namedview
     id="namedview1"
     pagecolor="#ffffff"
     bordercolor="#000000"
     borderopacity="0.25"
     inkscape:showpageshadow="2"
     inkscape:pageopacity="0.0"
     inkscape:pagecheckerboard="0"
     inkscape:deskcolor="#d1d1d1"
     inkscape:zoom="0.077047414"
     inkscape:cx="-1226.5175"
     inkscape:cy="681.3986"
     inkscape:window-width="1920"
     inkscape:window-height="1017"
     inkscape:window-x="1272"
     inkscape:window-y="-8"
     inkscape:window-maximized="1"
     inkscape:current-layer="g1" /><g
     inkscape:groupmode="layer"
     inkscape:label="Image"
     id="g1"><path
       style="fill:#000000;stroke-width:1.13984"
       d="m 63.502618,736.2174 c -0.125041,-0.20243 -0.164593,-28.157 -0.08777,-62.12127 l 0.139402,-61.7531 12.392681,-0.15365 12.392567,-0.15354 0.145672,49.73657 0.145557,49.73669 49.736683,0.14555 49.73658,0.14567 -0.15354,12.24063 -0.15365,12.24074 -62.03328,0.15194 c -34.118372,0.0832 -62.135636,-0.0137 -62.26079,-0.21623 z m 548.837002,0.13063 c -0.13063,-0.13051 -0.23754,-5.70729 -0.23754,-12.39257 v -12.15514 l 49.72551,-0.14567 49.72551,-0.14555 0.14568,-49.73669 0.14555,-49.73657 12.39268,0.15354 12.39257,0.15365 v 61.99395 61.99407 l -62.02621,0.1272 c -34.11449,0.0695 -62.13313,0.0205 -62.26375,-0.11056 z M 300.35587,632.33548 v -9.92835 l 1.85224,-0.39473 c 48.70342,-10.37927 56.81532,-12.91131 61.64368,-19.24163 3.4324,-4.50009 3.18107,11.66227 3.18642,-204.9272 V 199.72103 l -55.69975,-0.14531 c -62.74648,-0.16369 -59.85072,-0.34139 -63.68992,3.90817 -3.04976,3.37581 -2.89622,2.89783 -14.26624,44.3954 l -10.38428,37.89967 -13.18613,0.15297 -13.18623,0.15296 v -58.99721 -58.99721 h 203.46141 203.46142 v 58.98671 58.98674 h -13.39312 c -7.36621,0 -13.39312,-0.14841 -13.39312,-0.32987 0,-1.37054 -20.8243,-77.25698 -21.63815,-78.85227 -1.24972,-2.44953 -3.63347,-4.923 -5.99111,-6.21631 -1.56546,-0.85882 -6.95393,-0.95833 -59.43159,-1.0975 l -57.70998,-0.15306 0.14806,198.4852 0.14807,198.48516 1.50915,3.21891 c 3.65227,7.79012 7.24801,9.68248 26.78498,14.09651 8.26088,1.86649 20.34147,4.61042 26.84562,6.0978 l 11.82584,2.70427 v 9.88059 9.88047 H 399.80211 300.35108 Z M 63.532025,187.32527 c -0.149319,-0.39182 -0.205399,-28.41051 -0.124698,-62.26375 l 0.146811,-61.551357 h 62.121272 62.12127 l 0.15365,12.392625 0.15354,12.392624 -49.73657,0.145614 -49.736685,0.145615 -0.145557,49.725509 -0.145672,49.72552 H 76.071404 c -9.289809,0 -12.333979,-0.17295 -12.539379,-0.7124 z M 711.69878,138.32326 711.5531,88.586641 661.81653,88.441026 612.07985,88.295412 612.2335,75.902788 612.38704,63.510163 h 62.12127 62.12127 v 62.121277 62.12127 l -12.39257,0.15358 -12.39268,0.15358 z"
       id="path6"
       sodipodi:nodetypes="sscccccccccsssssccccccccccssccssccssscccccccccssssscccsssccccccsscccccccccssccccccccccccc" /></g></svg>
